<svg width="25" height="24" viewBox="0 0 25 24" xmlns="http://www.w3.org/2000/svg">
<path fill-rule="evenodd" clip-rule="evenodd" d="M19.9785 10.5745C19.9785 12.7688 19.2346 14.7888 17.9854 16.3972L22.8066 21.2185C23.1973 21.6091 23.1973 22.2424 22.8066 22.6326C22.4163 23.0232 21.783 23.0232 21.3926 22.6326L16.5996 17.8401C14.9463 19.2346 12.8105 20.0745 10.4785 20.0745C5.23169 20.0745 0.978516 15.821 0.978516 10.5745C0.978516 5.32788 5.23169 1.07446 10.4785 1.07446C15.7253 1.07446 19.9785 5.32788 19.9785 10.5745ZM2.87842 10.5745C2.87842 14.7717 6.28125 18.1746 10.4785 18.1746C14.6758 18.1746 18.0786 14.7717 18.0786 10.5745C18.0786 6.3772 14.6758 2.97437 10.4785 2.97437C6.28125 2.97437 2.87842 6.3772 2.87842 10.5745ZM10.52 15.5048C13.2814 15.5048 15.52 13.2663 15.52 10.5048C15.52 7.74341 13.2814 5.50484 10.52 5.50484C7.7586 5.50484 5.52002 7.74341 5.52002 10.5048C5.52002 13.2663 7.7586 15.5048 10.52 15.5048Z" fill="white"/>
</svg>
