<svg width="25" height="24" viewBox="0 0 25 24" fill="none" xmlns="http://www.w3.org/2000/svg">
<path fill-rule="evenodd" clip-rule="evenodd" d="M4.98047 6.91772C4.98047 5.26099 6.32373 3.91772 7.98047 3.91772H17.9805C19.6372 3.91772 20.9805 5.26099 20.9805 6.91772C20.9805 8.57446 19.6372 9.91772 17.9805 9.91772H7.98047C6.32373 9.91772 4.98047 8.57446 4.98047 6.91772ZM7.22168 6.91772C7.22168 6.36548 7.66943 5.91772 8.22168 5.91772H17.7393C18.2915 5.91772 18.7393 6.36548 18.7393 6.91772C18.7393 7.46997 18.2915 7.91772 17.7393 7.91772H8.22168C7.66943 7.91772 7.22168 7.46997 7.22168 6.91772Z" fill="white"/>
<path d="M4.98047 13.2659H20.9805V15.2659H4.98047V13.2659Z" fill="white"/>
<path d="M4.98047 18.0823H20.9805V20.0823H4.98047V18.0823Z" fill="white"/>
</svg>
