<svg width="22" height="22" viewBox="0 0 22 22" fill="none" xmlns="http://www.w3.org/2000/svg">
    <path d="M10.845 1.51136L1.97285 6.7432C1.94236 6.76118 1.92365 6.79394 1.92365 6.82934V20.4183C1.92365 20.4736 1.96842 20.5183 2.02365 20.5183H8.34641C8.40164 20.5183 8.44641 20.4736 8.44641 20.4183V13.6241C8.44641 13.5689 8.49118 13.5241 8.54641 13.5241H13.4219C13.4771 13.5241 13.5219 13.5689 13.5219 13.6241V20.4183C13.5219 20.4736 13.5667 20.5183 13.6219 20.5183H19.9373C19.9925 20.5183 20.0373 20.4736 20.0373 20.4183V6.82988C20.0373 6.79419 20.0183 6.76121 19.9874 6.74333L10.9459 1.51095C10.9146 1.49287 10.8761 1.49303 10.845 1.51136Z" stroke="white" stroke-width="2"/>
</svg>
