<svg width="25" height="24" viewBox="0 0 25 24" fill="none" xmlns="http://www.w3.org/2000/svg">
<path d="M5.00684 1.04321H7.00684V4.04321H10.0068V6.04321H7.00684V9.04321H5.00684V6.04321H2.00684V4.04321H5.00684V1.04321Z" fill="white"/>
<path d="M13.0581 5.53198C13.0298 5.76099 12.9907 5.98657 12.9409 6.20825H20.1216C20.7744 6.20825 21.3042 6.73804 21.3042 7.39087C21.3042 8.0437 20.7744 8.57349 20.1216 8.57349H11.9229C11.4604 9.26099 10.8789 9.86206 10.208 10.3474C9.90088 10.5696 9.5752 10.7673 9.2334 10.9382H20.4067C22.3657 10.9382 23.9541 9.34985 23.9541 7.39087C23.9541 5.43188 22.3657 3.84351 20.4067 3.84351H13.062C13.0938 4.11499 13.1104 4.39136 13.1104 4.67163C13.1104 4.96265 13.0928 5.24976 13.0581 5.53198Z" fill="white"/>
<path d="M23.0732 14.8972H5.03516V17.262H23.0732V14.8972Z" fill="white"/>
<path d="M5.03516 20.592H23.0732V22.9568H5.03516V20.592Z" fill="white"/>
</svg>
